PathFileType	4	(X/Y/Z)	/Users/mathieubourgeois/Desktop/Analyse/Traitement/Sujet_05/Data/Transformed_Sujet_05_velo_60.trc
DataRate	CameraRate	NumFrames	NumMarkers	Units	OrigDataRate	OrigDataStartFrame	OrigNumFrames
120.000000	120.000000	4	36	mm	120.000000	1443	1925
Frame#	Time	RFHD			RANE			STRN			LANI			LKNE			T10			RHUM			RWRB			C7			LFWT			LTOE			RTOE			LWRA			LBWT			RBWT			RFWT			LKNI			RKNI			RKNE			LANE			RANI			LHEE			RHEE			LHUM			LRAD			RRAD			RWRA			LWRB			LFHD			LBHD			RBHD			RSHO			LSHO			CLAV			LCAR			RCAR			
		X1	Y1	Z1	X2	Y2	Z2	X3	Y3	Z3	X4	Y4	Z4	X5	Y5	Z5	X6	Y6	Z6	X7	Y7	Z7	X8	Y8	Z8	X9	Y9	Z9	X10	Y10	Z10	X11	Y11	Z11	X12	Y12	Z12	X13	Y13	Z13	X14	Y14	Z14	X15	Y15	Z15	X16	Y16	Z16	X17	Y17	Z17	X18	Y18	Z18	X19	Y19	Z19	X20	Y20	Z20	X21	Y21	Z21	X22	Y22	Z22	X23	Y23	Z23	X24	Y24	Z24	X25	Y25	Z25	X26	Y26	Z26	X27	Y27	Z27	X28	Y28	Z28	X29	Y29	Z29	X30	Y30	Z30	X31	Y31	Z31	X32	Y32	Z32	X33	Y33	Z33	X34	Y34	Z34	X35	Y35	Z35	X36	Y36	Z36	

1444	12.025	141.7555389404297	1329.497436523438	81.91553497314446	-331.5699768066406	295.7907104492188	193.7186889648437	-224.1252593994141	1157.645874023438	30.4835376739501	-149.7608184814453	570.1679077148438	-55.62156295776373	-56.49230957031248	932.0225219726562	-153.9201354980469	-341.2132263183594	1362.405151367188	48.67675399780261	21.72716712951658	1032.046752929688	200.0818481445312	241.8023223876953	891.1890258789062	248.0206909179687	-103.1784896850586	1416.921508789062	20.08530616760244	-378.9037780761719	1091.078491210938	-71.20286560058605	-13.05760765075682	460.6774597167969	-97.39143371582034	-201.2449951171875	141.1233062744141	153.679443359375	271.7507934570312	933.4020385742188	-147.9154510498047	-543.9360961914062	1108.401000976562	-1.409067749977246	-527.0335083007812	1109.60888671875	134.7533721923827	-361.7741088867188	1065.969360351562	172.6962890624999	-42.5470962524414	905.6611328125	-50.82626342773444	-193.9933471679688	628.8648681640625	93.15393066406243	-194.38671875	672.8485107421875	199.0299530029296	-180.7682037353515	579.15966796875	-134.3207550048829	-294.8427734375	289.8596801757812	111.3980712890624	-239.3304138183594	549.177001953125	-87.66581726074224	-391.3318176269531	296.2101745605469	147.0367279052734	15.08001232147219	1042.479248046875	-145.2760772705079	60.70866394042971	1071.7109375	-191.9915161132813	63.35143280029294	1066.743530273438	248.8406829833984	274.5465087890625	932.9030151367188	195.0856323242187	237.1352081298828	885.1241455078125	-181.7419128417969	136.4149475097656	1309.21826171875	-67.8978347778321	27.29513359069825	1416.364868164062	-82.49099731445321	31.6495189666748	1459.006713867188	46.69768142700187	-29.87612915039065	1321.553833007812	161.970474243164	-74.02439880371092	1327.402099609375	-129.0115814208985	-101.0764465332031	1274.356323242188	24.75602340698233	314.8638610839844	925.6923828125	-224.9582061767578	319.5622253417968	928.6604614257812	284.3060913085938	
1445	12.03333333333333	141.3284301757812	1329.183837890625	82.45945739746087	-336.0896911621094	301.4346923828125	192.1536407470703	-224.5904235839844	1157.530883789062	30.2042121887206	-140.8756713867188	563.8011474609375	-56.20263671875005	-56.99699783325193	927.976806640625	-153.7960052490235	-341.6731262207031	1362.361694335938	48.41705703735339	21.46191215515134	1031.711791992188	200.0067138671874	241.6963500976562	891.1838989257812	248.0894012451172	-103.6111907958984	1416.735961914062	20.31169509887685	-379.11572265625	1090.494262695312	-71.76929473876964	-4.933338165283192	456.8645629882812	-97.27946472167972	-210.0723724365235	144.5957336425781	153.9434356689453	271.6509094238281	933.4116821289062	-147.8015289306641	-544.4710083007812	1107.895751953125	-1.864020943641797	-527.688232421875	1109.538208007812	134.2774658203124	-362.3255920410156	1066.243530273438	172.3171386718749	-43.59452438354491	902.3104248046875	-50.08972167968756	-191.5546722412109	631.2584838867188	93.3684997558593	-191.7869720458985	675.0579833984375	199.3500671386718	-174.7484130859375	572.3753051757812	-134.465316772461	-300.8146057128906	295.0841064453125	111.1313400268554	-231.2891693115234	540.9445190429688	-87.16422271728521	-397.1933288574219	303.3162536621094	146.567901611328	14.94645500183107	1042.42236328125	-145.3886718750001	60.66813659667971	1071.791381835938	-191.9369812011719	62.86830139160153	1066.632690429688	248.9280395507812	274.3369750976562	932.9537963867188	195.198501586914	237.0625152587891	885.1593627929688	-181.6629333496094	136.1356353759766	1309.012817382812	-67.24819183349616	27.07173728942872	1416.25146484375	-82.0455856323243	31.17044067382812	1458.763427734375	47.27394485473624	-30.5567207336426	1321.1572265625	162.1924743652343	-74.13898468017577	1327.32666015625	-128.7613372802735	-101.507080078125	1274.161743164062	24.95652770996085	314.7954711914062	925.7910766601562	-224.8526611328125	319.4431152343749	928.6805419921875	284.3636474609375	
1446	12.04166666666667	140.8593292236328	1328.863891601562	83.16217041015618	-341.6843872070312	307.8673400878906	191.7638092041015	-225.2200164794922	1157.373779296875	29.92282104492178	-136.2946014404297	557.4299926757812	-55.99347686767583	-57.75545120239256	923.6034545898438	-153.8478698730469	-342.1560363769531	1362.30712890625	48.12029266357409	21.17010116577146	1031.410522460938	199.9642333984374	241.5901336669922	891.1742553710938	248.1613006591797	-104.026741027832	1416.521484375	20.61407089233388	-379.1585083007812	1089.26904296875	-72.05102539062511	3.812122106552136	453.3410339355469	-97.25205230712893	-218.7093505859375	148.62255859375	154.1350860595703	271.5843505859375	933.40966796875	-147.6659698486328	-544.968505859375	1107.451538085938	-2.413825511932508	-528.3357543945312	1109.49560546875	133.742462158203	-362.8408813476562	1066.574584960938	172.032989501953	-44.56864929199218	898.7199096679688	-49.26774597167975	-188.9709625244141	633.8157348632812	93.64665985107415	-189.0650634765625	677.4166870117188	199.7607116699218	-168.8961791992187	565.1947021484375	-134.5990295410157	-306.4762268066406	300.6581726074219	110.8486862182617	-226.0783996582031	532.8507080078125	-87.99180603027349	-402.8022766113281	310.83349609375	146.0693054199218	14.81434249877931	1042.372680664062	-145.4520721435547	60.63483047485354	1071.828491210938	-191.8341217041016	62.48373794555661	1066.308227539062	248.9581909179687	274.1763916015625	932.9775390625	195.2584991455078	237.014877319336	885.1983032226562	-181.5759735107422	135.9187927246094	1308.807373046875	-66.45227050781257	26.92236328125001	1416.11376953125	-81.40933990478524	30.74827003479003	1458.5244140625	47.8876304626464	-31.18829154968264	1320.740844726562	162.5544433593749	-74.19843292236327	1327.165283203125	-128.4768981933595	-101.8286819458008	1273.977905273438	25.21395683288565	314.7267150878906	925.8954467773438	-224.7444152832032	319.3160095214843	928.7010498046875	284.4068908691406	
1447	12.05	140.0804138183594	1328.61083984375	84.38288116455071	-347.0567321777344	314.6280517578125	191.3939361572265	-225.7394561767578	1157.218505859375	29.68882369995107	-131.6507415771484	550.7445678710938	-56.06618881225591	-58.5831832885742	918.7474365234375	-154.0199432373047	-342.5831909179688	1362.287353515625	47.82186889648425	20.84517288208005	1031.098754882812	199.8848419189453	241.4786987304687	891.1660766601562	248.2206268310547	-104.4074172973633	1416.339965820312	20.9583854675292	-379.2959289550781	1088.615478515625	-72.69766998291027	11.0747699737549	448.7491149902344	-97.41743469238284	-226.9743194580078	153.1645660400391	154.4023742675781	271.5254211425781	933.3804321289062	-147.5157012939453	-545.395263671875	1106.952392578125	-2.98584628105177	-528.8999633789062	1109.454345703125	133.209259033203	-363.3335571289062	1066.925659179688	171.5883483886718	-45.69124603271484	893.5916748046875	-47.87383651733405	-186.3008117675781	636.4939575195312	94.06269836425774	-186.1867065429688	679.927978515625	200.2211456298828	-163.2715454101562	557.5684814453125	-134.7053680419922	-311.8576049804688	306.6095581054688	110.5854873657226	-219.9210052490234	524.40869140625	-88.19216156005865	-408.1045227050781	318.6602783203125	145.5706176757812	14.73561096191408	1042.332275390625	-145.4707794189454	60.63310623168947	1071.87060546875	-191.7262115478516	62.12421798706052	1065.7470703125	248.9128723144531	274.0426635742188	933.0177001953125	195.325927734375	236.9898834228516	885.2174072265625	-181.509765625	135.7604217529297	1308.642944335938	-65.56529235839851	26.86747932434083	1415.975341796875	-80.75375366210946	30.32781028747558	1458.304931640625	48.58946609497062	-31.88604736328127	1320.301635742188	162.8743286132812	-74.21043395996092	1327.064086914062	-128.1508178710938	-102.1694946289062	1273.813720703125	25.48470497131338	314.6529235839844	926.0098876953125	-224.6354675292969	319.1866455078124	928.7285766601562	284.4735412597656	
